Coordinates
version=1
nRows=40
nColumns=30
inDegrees=yes

Units are S.I. units (second, meters, Newtons, ...)
Angles are in degrees.

endheader
time	floatyaw	floatroll	floatpitch	floatx	floaty	floatz	pro_sup_l	deviation_l	flexion_l	cmc_flexion_l	cmc_abduction_l	mp_flexion_l	ip_flexion_l	2mcp_flexion_l	2mcp_abduction_l	2pm_flexion_l	2md_flexion_l	3mcp_flexion_l	3mcp_abduction_l	3pm_flexion_l	3md_flexion_l	4mcp_flexion_l	4mcp_abduction_l	4pm_flexion_l	4md_flexion_l	5mcp_flexion_l	5mcp_abduction_l	5pm_flexion_l	5md_flexion_l
-0.995000	-1.089067	-4.156866	93.821839	-0.009647	-0.265747	-0.002727	89.035843	0.451604	-2.136129	24.389383	3.515137	-17.978791	-29.063159	19.999833	5.884330	30.611915	20.407727	9.917756	4.417541	33.331591	21.523030	-1.196961	-3.868768	50.290659	33.042716	-20.676256	-7.923645	60.179377	50.084471
-0.985000	-1.089067	-4.156866	93.821839	-0.009653	-0.265742	-0.002726	89.021245	0.446447	-2.119392	24.359380	3.505687	-17.979131	-29.014107	19.982279	5.887360	30.593934	20.420271	9.911132	4.417580	33.313347	21.528838	-1.226335	-3.867661	50.306243	33.042623	-20.738543	-7.924863	60.220283	50.015371
-0.975000	-1.089067	-4.156866	93.821839	-0.009655	-0.265740	-0.002733	89.006917	0.442451	-2.105546	24.343784	3.494401	-17.985991	-28.982459	19.967749	5.894045	30.588782	20.421994	9.898490	4.416194	33.309694	21.530160	-1.237758	-3.869090	50.312779	33.039251	-20.798284	-7.927509	60.244154	49.975803
-0.965000	-1.089067	-4.156866	93.821839	-0.009654	-0.265741	-0.002744	88.996289	0.439791	-2.097706	24.338249	3.486698	-17.993713	-28.965636	19.960714	5.903432	30.593821	20.414040	9.884717	4.414126	33.319121	21.526699	-1.220927	-3.870823	50.300557	33.030133	-20.840923	-7.932516	60.241755	49.968817
-0.955000	-1.089067	-4.156866	93.821839	-0.009652	-0.265743	-0.002756	88.991220	0.438334	-2.096158	24.336580	3.484628	-17.997340	-28.955894	19.961723	5.913156	30.603349	20.402688	9.871706	4.411746	33.337798	21.521148	-1.178582	-3.870320	50.268970	33.013902	-20.861275	-7.940746	60.212691	49.988984
-0.945000	-1.089067	-4.156866	93.821839	-0.009651	-0.265745	-0.002766	88.991738	0.437992	-2.099187	24.333874	3.487268	-17.994967	-28.945434	19.969639	5.920746	30.609191	20.397590	9.859670	4.409017	33.359283	21.518811	-1.123145	-3.865971	50.225976	32.992135	-20.862904	-7.951728	60.166693	50.024482
-0.935000	-1.089067	-4.156866	93.821839	-0.009651	-0.265745	-0.002776	88.996742	0.438947	-2.104864	24.328711	3.492803	-17.988490	-28.931367	19.984025	5.924934	30.603671	20.407104	9.849582	4.405880	33.375802	21.524854	-1.068784	-3.857854	50.183554	32.969366	-20.853270	-7.963506	60.119131	50.062010
-0.925000	-1.089067	-4.156866	93.821839	-0.009650	-0.265742	-0.002788	89.004720	0.441479	-2.112280	24.323000	3.500558	-17.982367	-28.917302	20.005682	5.926094	30.583331	20.433191	9.844300	4.402692	33.381105	21.540918	-1.025053	-3.847640	50.152388	32.951532	-20.838804	-7.973813	60.083367	50.092081
-0.915000	-1.089067	-4.156866	93.821839	-0.009645	-0.265737	-0.002801	89.013896	0.445642	-2.121378	24.319565	3.511630	-17.980848	-28.910350	20.035049	5.925555	30.551205	20.469348	9.846980	4.400334	33.373981	21.563717	-0.995755	-3.837768	50.138945	32.943937	-20.822953	-7.981713	60.065060	50.112006
-0.905000	-1.089067	-4.156866	93.821839	-0.009636	-0.265733	-0.002816	89.022199	0.451299	-2.131821	24.319416	3.527784	-17.985142	-28.915612	20.069866	5.924373	30.516578	20.503332	9.857756	4.399845	33.360710	21.586803	-0.981822	-3.830393	50.145929	32.949555	-20.807156	-7.988531	60.062043	50.125488
-0.895000	-1.089067	-4.156866	93.821839	-0.009621	-0.265730	-0.002833	89.027836	0.458651	-2.142044	24.320899	3.549212	-17.992307	-28.932062	20.103916	5.922513	30.492442	20.523271	9.871353	4.401824	33.354571	21.604226	-0.984285	-3.826671	50.174395	32.967955	-20.792663	-7.997373	60.069310	50.139647
-0.885000	-1.089067	-4.156866	93.821839	-0.009600	-0.265726	-0.002855	89.030463	0.468806	-2.149287	24.321187	3.572469	-17.996605	-28.952516	20.127912	5.919001	30.491482	20.523736	9.877790	4.406070	33.371585	21.613850	-1.004637	-3.826662	50.225099	32.995096	-20.781544	-8.011476	60.085105	50.161059
-0.875000	-1.089067	-4.156866	93.821839	-0.009573	-0.265715	-0.002885	89.031969	0.483628	-2.150469	24.318638	3.590035	-17.992426	-28.967278	20.132314	5.912830	30.521664	20.508440	9.866137	4.411768	33.423736	21.618566	-1.043055	-3.829707	50.297985	33.024268	-20.776694	-8.032307	60.113413	50.192428
-0.865000	-1.089067	-4.156866	93.821839	-0.009539	-0.265696	-0.002927	89.036042	0.504675	-2.143319	24.314245	3.592209	-17.977100	-28.968945	20.110842	5.903896	30.582970	20.488206	9.829425	4.418062	33.512756	21.624793	-1.096661	-3.834883	50.390557	33.048091	-20.781258	-8.058503	60.160901	50.231313
-0.855000	-1.089067	-4.156866	93.821839	-0.009501	-0.265663	-0.002981	89.046673	0.531904	-2.127341	24.311673	3.570782	-17.952364	-28.956046	20.063253	5.893338	30.666934	20.475296	9.768342	4.424560	33.627833	21.638820	-1.159228	-3.841212	50.496567	33.060851	-20.797503	-8.086218	60.230834	50.271551
-0.845000	-1.089067	-4.156866	93.821839	-0.009463	-0.265620	-0.003042	89.066487	0.563092	-2.104426	24.316408	3.523018	-17.924171	-28.934536	19.996449	5.883125	30.759434	20.477088	9.692298	4.431347	33.748662	21.662730	-1.221991	-3.847600	50.605937	33.060173	-20.825164	-8.110616	60.318872	50.306456
-0.835000	-1.089067	-4.156866	93.821839	-0.009430	-0.265571	-0.003100	89.095668	0.594398	-2.078906	24.334511	3.454145	-17.901069	-28.916863	19.923627	5.875200	30.845248	20.492436	9.617467	4.438546	33.852301	21.692210	-1.274634	-3.852687	50.705837	33.047390	-20.860048	-8.127607	60.413942	50.331719
-0.825000	-1.089067	-4.156866	93.821839	-0.009408	-0.265523	-0.003146	89.131690	0.621675	-2.056620	24.370700	3.376758	-17.891403	-28.918068	19.861351	5.870673	30.912008	20.512520	9.562150	4.445770	33.920600	21.717816	-1.306644	-3.854880	50.782760	33.026540	-20.894455	-8.134915	60.503112	50.346428
-0.815000	-1.089067	-4.156866	93.821839	-0.009397	-0.265483	-0.003174	89.169791	0.641767	-2.042777	24.425371	3.306589	-17.899801	-28.948806	19.824599	5.869455	30.952248	20.525523	9.540360	4.451907	33.945349	21.729315	-1.310224	-3.852820	50.825783	33.002517	-20.920279	-8.132191	60.576718	50.352178
-0.805000	-1.089067	-4.156866	93.821839	-0.009398	-0.265453	-0.003183	89.204018	0.653171	-2.039299	24.491338	3.256201	-17.924138	-29.007484	19.821000	5.870436	30.963720	20.522523	9.555723	4.455436	33.929698	21.720870	-1.284785	-3.846211	50.830539	32.979242	-20.933637	-8.120514	60.630393	50.351364
-0.795000	-1.089067	-4.156866	93.821839	-0.009407	-0.265432	-0.003178	89.228592	0.655862	-2.043209	24.552678	3.230144	-17.954909	-29.076266	19.847100	5.872060	30.948658	20.501481	9.598865	4.455132	33.885696	21.694145	-1.240273	-3.836525	50.801944	32.958653	-20.938157	-8.101770	60.663342	50.345957
-0.785000	-1.089067	-4.156866	93.821839	-0.009422	-0.265416	-0.003165	89.239189	0.650561	-2.047609	24.588162	3.224857	-17.978382	-29.125414	19.889679	5.873012	30.912358	20.467474	9.650704	4.450736	33.829034	21.657521	-1.195496	-3.826901	50.753170	32.940738	-20.944184	-8.078135	60.674908	50.337434
-0.775000	-1.089067	-4.156866	93.821839	-0.009443	-0.265402	-0.003144	89.234019	0.638080	-2.045303	24.579523	3.233237	-17.982783	-29.126024	19.932227	5.872785	30.861536	20.429527	9.690867	4.443194	33.773393	21.621936	-1.170292	-3.820911	50.700333	32.924222	-20.963381	-8.051748	60.662528	50.327474
-0.765000	-1.089067	-4.156866	93.821839	-0.009468	-0.265389	-0.003117	89.214801	0.619283	-2.033096	24.521196	3.249805	-17.964359	-29.065260	19.962897	5.871957	30.803034	20.396293	9.706904	4.434313	33.726968	21.595901	-1.175173	-3.820717	50.655351	32.907309	-21.001221	-8.024727	60.622806	50.318351
-0.755000	-1.089067	-4.156866	93.821839	-0.009498	-0.265379	-0.003080	89.187449	0.595727	-2.013949	24.426103	3.272028	-17.929718	-28.955393	19.979012	5.872031	30.743107	20.373109	9.699156	4.426000	33.692220	21.582511	-1.204876	-3.825753	50.620987	32.888228	-21.051916	-7.999404	60.555037	50.312387
-0.745000	-1.089067	-4.156866	93.821839	-0.009528	-0.265376	-0.003032	89.161547	0.570364	-1.995531	24.323358	3.297239	-17.893071	-28.830993	19.985928	5.874785	30.687007	20.361466	9.678895	4.419451	33.667913	21.579599	-1.240263	-3.832909	50.590916	32.865771	-21.099555	-7.978337	60.464764	50.310831
-0.735000	-1.089067	-4.156866	93.821839	-0.009557	-0.265382	-0.002977	89.147669	0.547439	-1.986109	24.248001	3.319242	-17.870092	-28.735348	19.992019	5.881287	30.638668	20.360079	9.661418	4.414695	33.651643	21.582023	-1.257840	-3.838245	50.554670	32.839970	-21.125669	-7.963751	60.364754	50.313098
-0.725000	-1.089067	-4.156866	93.821839	-0.009578	-0.265394	-0.002921	89.152846	0.531161	-1.990315	24.227126	3.329114	-17.871701	-28.702922	20.003369	5.891049	30.600738	20.366071	9.658194	4.410762	33.641486	21.584258	-1.241634	-3.839120	50.504539	32.812761	-21.119206	-7.956747	60.271979	50.316837
-0.715000	-1.089067	-4.156866	93.821839	-0.009591	-0.265409	-0.002872	89.176389	0.523708	-2.007062	24.268772	3.320686	-17.900264	-28.746202	20.020921	5.901818	30.575050	20.375701	9.671952	4.406401	33.636377	21.582253	-1.191111	-3.835425	50.440658	32.788193	-21.083023	-7.956910	60.201524	50.318575
-0.705000	-1.089067	-4.156866	93.821839	-0.009594	-0.265422	-0.002837	89.209046	0.523975	-2.030423	24.358824	3.296315	-17.949131	-28.852385	20.040811	5.910218	30.562996	20.385147	9.696653	4.400877	33.635537	21.574449	-1.121175	-3.829237	50.371770	32.771670	-21.032851	-7.962567	60.160529	50.314584
-0.695000	-1.089067	-4.156866	93.821839	-0.009591	-0.265433	-0.002816	89.236935	0.528186	-2.052706	24.467630	3.267558	-18.005300	-28.990366	20.056982	5.913026	30.565253	20.391802	9.721769	4.394307	33.637684	21.562047	-1.054503	-3.823351	50.311622	32.767982	-20.989252	-7.971565	60.145626	50.302123
-0.685000	-1.089067	-4.156866	93.821839	-0.009584	-0.265440	-0.002809	89.248643	0.532162	-2.067972	24.563279	3.249211	-18.054301	-29.124068	20.064282	5.908555	30.581116	20.395472	9.738259	4.387418	33.640778	21.548370	-1.010417	-3.819717	50.273066	32.778804	-20.967270	-7.982212	60.145450	50.281173
-0.675000	-1.089067	-4.156866	93.821839	-0.009578	-0.265444	-0.002811	89.241281	0.533667	-2.074259	24.624774	3.250672	-18.085402	-29.225868	20.060362	5.897553	30.608293	20.398290	9.742942	4.381059	33.642606	21.537332	-0.996309	-3.818705	50.262799	32.801140	-20.969940	-7.993917	60.146967	50.255907
-0.665000	-1.089067	-4.156866	93.821839	-0.009572	-0.265445	-0.002819	89.221527	0.533172	-2.073564	24.648190	3.270846	-18.094828	-29.284335	20.045851	5.883117	30.643592	20.402800	9.739167	4.375923	33.641765	21.531402	-1.005972	-3.819416	50.278972	32.827910	-20.989373	-8.007026	60.142190	50.234674
-0.655000	-1.089067	-4.156866	93.821839	-0.009568	-0.265443	-0.002829	89.201093	0.532704	-2.070043	24.643658	3.299952	-18.085789	-29.304107	20.023529	5.869571	30.683901	20.409168	9.734184	4.372573	33.638128	21.529842	-1.024620	-3.820610	50.312081	32.850412	-21.013883	-8.021823	60.131603	50.227946
-0.645000	-1.089067	-4.156866	93.821839	-0.009564	-0.265438	-0.002838	89.189993	0.533941	-2.067837	24.627064	3.326299	-18.066160	-29.300281	19.997660	5.860777	30.726456	20.413631	9.735466	4.371546	33.632271	21.528282	-1.036410	-3.821533	50.348014	32.861293	-21.035195	-8.037496	60.122362	50.244769
-0.635000	-1.089067	-4.156866	93.821839	-0.009562	-0.265431	-0.002843	89.192011	0.537072	-2.069676	24.612379	3.343040	-18.045399	-29.291315	19.973767	5.858690	30.768086	20.409917	9.747970	4.373328	33.624447	21.520559	-1.030126	-3.822194	50.372121	32.856794	-21.050545	-8.052108	60.122489	50.288750
-0.625000	-1.089067	-4.156866	93.821839	-0.009560	-0.265424	-0.002841	89.204360	0.540970	-2.076327	24.607573	3.350921	-18.031542	-29.292538	19.957992	5.862852	30.804253	20.393251	9.772666	4.378209	33.614378	21.502558	-1.001824	-3.823138	50.373782	32.837874	-21.059962	-8.063925	60.134860	50.354897
-0.615000	-1.089067	-4.156866	93.821839	-0.009561	-0.265416	-0.002835	89.220519	0.544088	-2.086445	24.613564	3.356044	-18.028482	-29.310490	19.955087	5.870997	30.829232	20.364339	9.805946	4.386255	33.602109	21.475850	-0.955516	-3.825036	50.350472	32.810200	-21.063543	-8.073259	60.154654	50.429267
-0.605000	-1.089067	-4.156866	93.821839	-0.009563	-0.265406	-0.002828	89.234069	0.545129	-2.096756	24.624817	3.364451	-18.034156	-29.339023	19.965269	5.880335	30.837990	20.330390	9.840107	4.397430	33.588636	21.448221	-0.902617	-3.828391	50.309142	32.782811	-21.062552	-8.083366	60.171279	50.493016
